<svg xmlns="http://www.w3.org/2000/svg" viewBox="0 0 480.94 488.94"><defs><style>.cls-1{fill:#19a3ff;}.cls-2{fill:#3c90c8;}.cls-3{fill:#00538a;}.cls-4{fill:none;}.cls-5{fill:#0071bd;}.cls-6{fill:#004370;}.cls-7{fill:#fff;stroke:#fff;stroke-linecap:round;stroke-miterlimit:10;stroke-width:4px;}</style></defs><title>Recurso 1</title><g id="Capa_2" data-name="Capa 2"><g id="Capa_1-2" data-name="Capa 1"><polygon class="cls-1" points="300.58 88.17 392.75 180.34 388.74 308.59 300.58 396.75 176.34 396.75 92.18 308.59 88.18 180.34 180.35 92.18 300.58 88.17"/><polygon class="cls-2" points="480.91 140.26 392.74 180.34 300.57 88.17 340.64 0 480.91 140.26"/><polygon class="cls-2" points="0 140.26 88.17 180.34 180.34 92.17 140.26 0 0 140.26"/><polygon class="cls-3" points="480.91 348.66 388.73 308.58 300.57 396.75 340.64 488.92 480.91 348.66"/><polygon class="cls-3" points="0 348.66 92.17 308.58 176.33 396.75 140.26 488.92 0 348.66"/><line class="cls-4" x1="180.35" y1="92.18" x2="300.58" y2="88.17"/><polygon class="cls-5" points="340.68 0.01 300.58 88.17 180.34 92.16 140.27 0.01 340.68 0.01"/><polygon class="cls-6" points="340.64 488.94 300.57 396.73 176.34 396.73 140.27 488.91 340.64 488.94"/><polygon class="cls-5" points="480.94 140.27 392.75 180.34 388.73 308.6 480.91 348.64 480.94 140.27"/><polygon class="cls-5" points="0.02 140.26 88.18 180.36 92.17 308.59 0.02 348.66 0.02 140.26"/><line class="cls-7" x1="232.45" y1="140.27" x2="324.62" y2="232.44"/><line class="cls-7" x1="280.54" y1="136.26" x2="328.63" y2="184.35"/></g></g></svg>